# Blender v2.93.0 OBJ File: 'Terrarium.blend'
# www.blender.org
mtllib hole.mtl
o Hole_Cylinder.001
v -10.999295 7.753868 17.759546
v -12.037145 9.265880 32.054775
v -10.185343 7.637916 17.759546
v -13.035111 8.828045 32.054775
v -9.402668 7.294549 17.759546
v -13.954843 8.117048 32.054775
v -8.681354 6.736935 17.759546
v -14.760995 7.160198 32.054775
v -8.049117 5.986504 17.759546
v -15.422585 5.994267 32.054775
v -7.530253 5.072109 17.759546
v -15.914191 4.664064 32.054775
v -7.144700 4.028864 17.759546
v -16.216919 3.220733 32.054775
v -6.907279 2.896909 17.759546
v -16.319141 1.719697 32.054775
v -6.827112 1.719697 17.759546
v -5.679451 1.719697 32.054775
v -15.171479 1.719697 17.759546
v -5.781670 3.220733 32.054775
v -15.091311 2.896909 17.759546
v -6.084400 4.664064 32.054775
v -14.853889 4.028864 17.759546
v -6.576006 5.994267 32.054775
v -14.468337 5.072109 17.759546
v -7.237597 7.160198 32.054775
v -13.949474 5.986504 17.759546
v -8.043748 8.117048 32.054775
v -13.317238 6.736935 17.759546
v -8.963479 8.828045 32.054775
v -12.595922 7.294549 17.759546
v -9.961445 9.265880 32.054775
v -11.813248 7.637933 17.759546
v -10.999295 9.413717 32.054775
v -10.999295 9.413717 17.759546
v -9.961445 9.265880 17.759546
v -8.963479 8.828045 17.759546
v -8.043748 8.117048 17.759546
v -7.237597 7.160198 17.759546
v -6.576006 5.994267 17.759546
v -6.084400 4.664064 17.759546
v -5.781670 3.220733 17.759546
v -5.679451 1.719697 17.759546
v -16.319141 1.719697 17.759546
v -16.216919 3.220733 17.759546
v -15.914191 4.664064 17.759546
v -15.422585 5.994267 17.759546
v -14.760995 7.160198 17.759546
v -13.954843 8.117048 17.759546
v -13.035111 8.828045 17.759546
v -12.037145 9.265880 17.759546
v -11.813248 7.637933 32.054775
v -12.595922 7.294549 32.054775
v -13.317238 6.736935 32.054775
v -13.949474 5.986504 32.054775
v -14.468337 5.072109 32.054775
v -14.853889 4.028864 32.054775
v -15.091311 2.896909 32.054775
v -15.171479 1.719697 32.054775
v -6.827112 1.719697 32.054775
v -6.907279 2.896909 32.054775
v -7.144700 4.028864 32.054775
v -7.530253 5.072109 32.054775
v -8.049117 5.986504 32.054775
v -8.681354 6.736935 32.054775
v -9.402668 7.294549 32.054775
v -10.185343 7.637916 32.054775
v -10.999295 7.753868 32.054775
vt 0.971731 0.341844
vt 0.971731 0.341844
vt 0.985388 0.296822
vt 0.985388 0.296822
vt 0.528269 0.341844
vt 0.528269 0.341844
vt 0.550447 0.383337
vt 0.550447 0.383337
vt 0.796822 0.485388
vt 0.796822 0.485388
vt 0.841844 0.471731
vt 0.841844 0.471731
vt 0.565392 0.286721
vt 0.565392 0.286721
vt 0.561776 0.250000
vt 0.561776 0.250000
vt 0.938224 0.250000
vt 0.938224 0.250000
vt 0.934608 0.286721
vt 0.934608 0.286721
vt 0.923897 0.322030
vt 0.923897 0.322030
vt 0.906503 0.354572
vt 0.906503 0.354572
vt 0.919706 0.419706
vt 0.919706 0.419706
vt 0.949553 0.383337
vt 0.949553 0.383337
vt 0.854572 0.406503
vt 0.854572 0.406503
vt 0.822030 0.423897
vt 0.822030 0.423897
vt 0.750000 0.438224
vt 0.750000 0.438224
vt 0.713279 0.434608
vt 0.713279 0.434608
vt 0.883337 0.449553
vt 0.883337 0.449553
vt 0.786721 0.434607
vt 0.786721 0.434607
vt 0.677970 0.423897
vt 0.677970 0.423897
vt 0.990000 0.250000
vt 0.990000 0.250000
vt 0.593497 0.354572
vt 0.593497 0.354572
vt 0.576103 0.322030
vt 0.576103 0.322030
vt 0.514612 0.296822
vt 0.750000 0.490000
vt 0.883095 0.383095
vt 0.510000 0.250000
vt 0.514612 0.296822
vt 0.616905 0.383095
vt 0.580294 0.419706
vt 0.645428 0.406503
vt 0.616663 0.449553
vt 0.658156 0.471731
vt 0.703178 0.485388
vt 0.750000 0.490000
vt 0.703178 0.485388
vt 0.883095 0.383095
vt 0.580294 0.419706
vt 0.510000 0.250000
vt 0.616905 0.383095
vt 0.658156 0.471731
vt 0.616663 0.449553
vt 0.645428 0.406503
vn 0.6947 0.2000 -0.6909
vn 0.6947 0.2000 0.6909
vn 0.7152 0.0988 0.6918
vn 0.7152 0.0988 -0.6918
vn -0.6947 0.2000 -0.6909
vn -0.6947 0.2000 0.6909
vn -0.6569 0.3053 0.6893
vn -0.6569 0.3053 -0.6893
vn 0.2014 0.7071 -0.6778
vn 0.2014 0.7071 0.6778
vn 0.3740 0.6299 0.6806
vn 0.3740 0.6299 -0.6806
vn 0.6843 -0.0946 -0.7230
vn 0.6843 -0.0946 0.7230
vn 0.5556 -0.5947 0.5810
vn 0.5556 -0.5947 -0.5810
vn -0.5556 -0.5947 -0.5810
vn -0.5556 -0.5947 0.5810
vn -0.6843 -0.0946 0.7230
vn -0.6843 -0.0946 -0.7230
vn -0.6628 -0.1909 0.7240
vn -0.6628 -0.1909 -0.7240
vn -0.6238 -0.2899 0.7258
vn -0.6238 -0.2899 -0.7258
vn 0.5964 0.4151 -0.6870
vn 0.5964 0.4151 0.6870
vn 0.6569 0.3053 0.6893
vn 0.6569 0.3053 -0.6893
vn -0.4717 -0.4919 -0.7318
vn -0.4717 -0.4919 0.7318
vn -0.3458 -0.5824 0.7356
vn -0.3458 -0.5824 -0.7356
vn 0.0000 -0.6723 -0.7403
vn 0.0000 -0.6723 0.7403
vn 0.1845 -0.6480 0.7389
vn 0.1845 -0.6480 -0.7389
vn 0.5049 0.5265 -0.6840
vn 0.5049 0.5265 0.6840
vn -0.1845 -0.6480 0.7389
vn -0.1845 -0.6480 -0.7389
vn 0.3458 -0.5824 0.7356
vn 0.3458 -0.5824 -0.7356
vn 0.5984 -0.5591 0.5738
vn 0.5984 -0.5591 -0.5738
vn 0.6238 -0.2899 -0.7258
vn 0.6238 -0.2899 0.7258
vn 0.6628 -0.1909 0.7240
vn 0.6628 -0.1909 -0.7240
vn -0.7152 0.0988 0.6918
vn 0.0000 0.7362 -0.6767
vn -0.5623 -0.3915 -0.7284
vn -0.5984 -0.5591 -0.5738
vn -0.7152 0.0988 -0.6918
vn 0.5623 -0.3915 -0.7284
vn -0.5964 0.4151 -0.6870
vn 0.4717 -0.4919 -0.7318
vn -0.5049 0.5265 -0.6840
vn -0.3740 0.6299 -0.6806
vn -0.2014 0.7071 -0.6778
vn 0.0000 0.7362 0.6767
vn -0.2014 0.7071 0.6778
vn -0.5623 -0.3915 0.7284
vn -0.5964 0.4151 0.6870
vn -0.5984 -0.5591 0.5738
vn 0.5623 -0.3914 0.7284
vn -0.3740 0.6299 0.6806
vn -0.5049 0.5265 0.6840
vn 0.4717 -0.4919 0.7318
usemtl None
s 1
f 41/1/1 22/2/2 20/3/3 42/4/4
f 46/5/5 12/6/6 10/7/7 47/8/8
f 36/9/9 32/10/10 30/11/11 37/12/12
f 21/13/13 58/14/14 59/15/15 19/16/16
f 17/17/17 60/18/18 61/19/19 15/20/20
f 15/20/20 61/19/19 62/21/21 13/22/22
f 13/22/22 62/21/21 63/23/23 11/24/24
f 39/25/25 26/26/26 24/27/27 40/28/28
f 7/29/29 65/30/30 66/31/31 5/32/32
f 1/33/33 68/34/34 52/35/35 33/36/36
f 38/37/37 28/38/38 26/26/26 39/25/25
f 5/32/32 66/31/31 67/39/39 3/40/40
f 33/36/36 52/35/35 53/41/41 31/42/42
f 3/40/40 67/39/39 68/34/34 1/33/33
f 42/4/4 20/3/3 18/43/43 43/44/44
f 25/45/45 56/46/46 57/47/47 23/48/48
f 57/47/47 12/6/6 14/49/49 58/14/14
f 3/40/40 1/33/33 35/50/50 36/9/9
f 5/32/32 3/40/40 36/9/9 37/12/12
f 7/29/29 5/32/32 37/12/12 38/37/37
f 9/51/51 7/29/29 38/37/37 39/25/25
f 11/24/24 9/51/51 39/25/25 40/28/28
f 13/22/22 11/24/24 40/28/28 41/1/1
f 15/20/20 13/22/22 41/1/1 42/4/4
f 17/17/17 15/20/20 42/4/4 43/44/44
f 21/13/13 19/16/16 44/52/52 45/53/53
f 23/48/48 21/13/13 45/53/53 46/5/5
f 25/45/45 23/48/48 46/5/5 47/8/8
f 27/54/54 25/45/45 47/8/8 48/55/55
f 29/56/56 27/54/54 48/55/55 49/57/57
f 31/42/42 29/56/56 49/57/57 50/58/58
f 33/36/36 31/42/42 50/58/58 51/59/59
f 1/33/33 33/36/36 51/59/59 35/50/50
f 68/34/34 34/60/60 2/61/61 52/35/35
f 60/18/18 18/43/43 20/3/3 61/19/19
f 61/19/19 20/3/3 22/2/2 62/21/21
f 62/21/21 22/2/2 24/27/27 63/23/23
f 63/23/23 24/27/27 26/26/26 64/62/62
f 47/8/8 10/7/7 8/63/63 48/55/55
f 64/62/62 26/26/26 28/38/38 65/30/30
f 19/16/16 59/15/15 16/64/64 44/52/52
f 65/30/30 28/38/38 30/11/11 66/31/31
f 27/54/54 55/65/65 56/46/46 25/45/45
f 66/31/31 30/11/11 32/10/10 67/39/39
f 43/44/44 18/43/43 60/18/18 17/17/17
f 67/39/39 32/10/10 34/60/60 68/34/34
f 53/41/41 4/66/66 6/67/67 54/68/68
f 29/56/56 54/68/68 55/65/65 27/54/54
f 55/65/65 8/63/63 10/7/7 56/46/46
f 48/55/55 8/63/63 6/67/67 49/57/57
f 9/51/51 64/62/62 65/30/30 7/29/29
f 44/52/52 16/64/64 14/49/49 45/53/53
f 31/42/42 53/41/41 54/68/68 29/56/56
f 37/12/12 30/11/11 28/38/38 38/37/37
f 51/59/59 2/61/61 34/60/60 35/50/50
f 52/35/35 2/61/61 4/66/66 53/41/41
f 54/68/68 6/67/67 8/63/63 55/65/65
f 56/46/46 10/7/7 12/6/6 57/47/47
f 58/14/14 14/49/49 16/64/64 59/15/15
f 23/48/48 57/47/47 58/14/14 21/13/13
f 50/58/58 4/66/66 2/61/61 51/59/59
f 40/28/28 24/27/27 22/2/2 41/1/1
f 45/53/53 14/49/49 12/6/6 46/5/5
f 49/57/57 6/67/67 4/66/66 50/58/58
f 35/50/50 34/60/60 32/10/10 36/9/9
f 11/24/24 63/23/23 64/62/62 9/51/51
